# This file uses centimeters as units for non-parametric coordinates.

mtllib lacluna_normalizedLightPost.mtl
g default
v -0.126454 0.000000 1.740168
v 3.230974 0.000000 1.740168
v 0.119386 4.844454 1.456678
v 2.985135 4.844454 1.456678
v 0.119386 4.844454 -1.847963
v 2.985135 4.844454 -1.847963
v -0.126454 0.000000 -2.131453
v 3.230974 0.000000 -2.131453
v -0.507481 0.000000 -2.583142
v 3.612002 0.000000 -2.583142
v 3.612002 0.000000 2.191858
v -0.507481 0.000000 2.191858
v -0.507481 -0.541692 -2.583142
v 3.612002 -0.541692 -2.583142
v 3.612002 -0.541692 2.191858
v -0.507481 -0.541692 2.191858
v -0.262714 4.844454 1.897297
v 3.367234 4.844454 1.897297
v 3.367234 4.844454 -2.288581
v -0.262714 4.844454 -2.288581
v -0.262714 5.309603 1.897297
v 3.367233 5.309602 1.897297
v 3.367234 5.309602 -2.288581
v -0.262713 5.309603 -2.288581
v 0.765771 5.309603 0.711298
v 2.338748 5.309602 0.711298
v 2.338749 5.309602 -1.102583
v 0.765772 5.309603 -1.102583
v 0.949298 25.934011 0.499673
v 2.155247 25.934011 0.499673
v 2.155247 25.934011 -0.890968
v 0.949298 25.934011 -0.890968
v 0.406621 25.934014 1.125462
v 2.697924 25.934018 1.125462
v 2.697924 25.934018 -1.516757
v 0.406621 25.934011 -1.516757
v 0.158387 29.631402 1.411700
v 2.946139 29.631406 1.411700
v 2.946139 29.631406 -1.803000
v 0.158387 29.631398 -1.803000
v -0.259776 29.631398 1.893905
v 3.364302 29.631402 1.893905
v 3.364302 29.631398 -2.285204
v -0.259776 29.631391 -2.285204
v -0.259777 30.236360 1.893904
v 3.364301 30.236371 1.893904
v 3.364301 30.236360 -2.285205
v -0.259777 30.236344 -2.285205
v 0.135572 30.236360 1.371515
v 2.968953 30.236375 1.371515
v 2.968953 30.236367 -1.762817
v 0.135571 30.236352 -1.762817
v 1.552250 32.585881 -0.195657
v 2.726943 26.366284 0.829313
v 2.726943 26.366284 -1.220609
v 2.919517 29.234841 -1.442685
v 2.919517 29.234841 1.051386
v 2.414710 26.387242 0.829313
v 2.414710 26.387242 -1.220609
v 2.607284 29.255799 -1.442685
v 2.607284 29.255799 1.051386
v 0.623111 26.283361 1.152507
v 2.481430 26.283364 1.152507
v 2.682740 29.282064 1.384655
v 0.421785 29.282060 1.384655
v 0.623111 26.305448 0.867220
v 2.481430 26.305455 0.867220
v 2.682740 29.304154 1.099368
v 0.421785 29.304147 1.099368
v 0.383277 26.281705 0.876995
v 0.383277 26.281705 -1.268291
v 0.181730 29.283711 1.109400
v 0.181730 29.283708 -1.500699
v 0.643079 26.299146 0.876995
v 0.643079 26.299146 -1.268291
v 0.441532 29.301152 1.109400
v 0.441532 29.301148 -1.500699
v 0.616656 26.284654 -1.543903
v 2.487887 26.284658 -1.543903
v 0.413931 29.307523 -1.777926
v 2.690596 29.307527 -1.777926
v 0.616656 26.313024 -1.177454
v 2.487887 26.313027 -1.177454
v 0.413931 29.335893 -1.411477
v 2.690596 29.335897 -1.411477
vt 0.733286 0.019797
vt 0.732141 0.284893
vt 0.377534 0.283362
vt 0.378678 0.018265
vt 0.375589 0.733873
vt 0.376490 0.525313
vt 0.731096 0.526843
vt 0.730197 0.735403
vt 0.861077 0.304045
vt 0.756789 0.225315
vt 0.756216 0.304053
vt 0.861649 0.225940
vt 0.755688 0.403076
vt 0.729177 0.971600
vt 0.374569 0.970070
vt 0.756314 0.318573
vt 0.802005 0.833479
vt 0.801655 0.949920
vt 0.785949 0.963087
vt 0.786379 0.820218
vt 0.935928 0.950323
vt 0.951554 0.963585
vt 0.936278 0.833883
vt 0.951983 0.820715
vt 0.758890 0.122283
vt 0.745595 0.112439
vt 0.767163 0.963030
vt 0.767593 0.820161
vt 0.872603 0.312403
vt 0.871896 0.411684
vt 0.951497 0.982372
vt 0.785893 0.981874
vt 0.758268 0.207405
vt 0.744843 0.215329
vt 0.970770 0.820772
vt 0.970340 0.963642
vt 0.743434 0.411683
vt 0.862852 0.030210
vt 0.786436 0.801430
vt 0.952040 0.801929
vt 0.978330 0.452247
vt 0.899131 0.452247
vt 0.888572 0.440070
vt 0.988889 0.440070
vt 0.899132 0.543575
vt 0.888572 0.555752
vt 0.978330 0.543574
vt 0.988890 0.555751
vt 0.775399 0.427215
vt 0.875717 0.427215
vt 0.875717 0.440070
vt 0.775399 0.440070
vt 0.807189 0.632195
vt 0.786187 0.616300
vt 0.875717 0.555752
vt 0.870199 0.689153
vt 0.875717 0.568606
vt 0.775399 0.568606
vt 0.775399 0.555752
vt 0.807190 0.746113
vt 0.762544 0.555752
vt 0.762544 0.440070
vt 0.786187 0.762008
vt 0.933207 0.632194
vt 0.860587 0.124574
vt 0.858617 0.205673
vt 0.847293 0.472846
vt 0.803822 0.472846
vt 0.873305 0.216269
vt 0.847293 0.522975
vt 0.758422 0.029800
vt 0.803822 0.522975
vt 0.113515 0.021400
vt 0.186301 0.021400
vt 0.186301 0.975911
vt 0.113515 0.975911
vt 0.762833 0.231718
vt 0.270249 0.021400
vt 0.270249 0.975911
vt 0.854083 0.233455
vt 0.854166 0.325876
vt 0.343035 0.021400
vt 0.343035 0.975911
vt 0.763348 0.324840
vt 0.029629 0.021400
vt 0.762403 0.297774
vt 0.757877 0.105184
vt 0.029629 0.975911
vt 0.896259 0.045467
vt 0.895954 0.087292
vt 0.874086 0.114276
vt 0.874720 0.017398
vt 0.944184 0.087643
vt 0.965750 0.106622
vt 0.944488 0.045819
vt 0.966328 0.026387
vt 0.854705 0.037639
vt 0.854719 0.096458
vt 0.766051 0.097268
vt 0.766575 0.036184
vt 0.854917 0.131167
vt 0.854445 0.198846
vt 0.764614 0.199157
vt 0.764821 0.129481
vt 0.860182 0.403075
vt 0.853708 0.297755
vt 0.853645 0.395617
vt 0.761944 0.396446
vt 0.744141 0.311464
vt 0.861205 0.318573
vt 0.746285 0.017357
vt 0.862341 0.105536
vt 0.894833 0.243413
vt 0.983333 0.243413
vt 0.996608 0.258722
vt 0.881558 0.258722
vt 0.983333 0.141360
vt 0.996608 0.126051
vt 0.894833 0.141360
vt 0.881558 0.126051
vt 0.978533 0.616298
vt 0.978534 0.762008
vt 0.954211 0.762008
vt 0.954210 0.616299
vt 0.954211 0.786330
vt 0.786186 0.786331
vt 0.786187 0.591977
vt 0.954210 0.591976
vt 0.761864 0.762008
vt 0.761865 0.616300
vt 0.933208 0.746113
vn 0.000000 -0.058419 -0.998292
vn 0.000000 -0.058419 -0.998292
vn 0.000000 -0.058419 -0.998292
vn 0.000000 -0.058419 -0.998292
vn 0.000000 -0.058419 0.998292
vn 0.000000 -0.058419 0.998292
vn 0.000000 -0.058419 0.998292
vn 0.000000 -0.058419 0.998292
vn -0.998715 -0.050681 0.000000
vn -0.998715 -0.050681 0.000000
vn -0.998715 -0.050681 0.000000
vn -0.998715 -0.050681 0.000000
vn 0.998715 -0.050681 0.000000
vn 0.998715 -0.050681 0.000000
vn 0.998715 -0.050681 0.000000
vn 0.998715 -0.050681 0.000000
vn 0.000000 -1.000000 0.000000
vn 0.000000 -1.000000 0.000000
vn 0.000000 -1.000000 0.000000
vn 0.000000 -1.000000 0.000000
vn 0.000000 -1.000000 -0.000000
vn 0.000000 -1.000000 -0.000000
vn 0.000000 -1.000000 -0.000000
vn 0.000000 -1.000000 -0.000000
vn 0.000000 0.000000 1.000000
vn 0.000000 0.000000 1.000000
vn 0.000000 0.000000 1.000000
vn 0.000000 0.000000 1.000000
vn -1.000000 0.000001 0.000000
vn -1.000000 0.000001 0.000000
vn -1.000000 0.000001 0.000000
vn -1.000000 0.000001 0.000000
vn 0.000000 -0.000000 -1.000000
vn 0.000000 -0.000000 -1.000000
vn 0.000000 -0.000000 -1.000000
vn 0.000000 -0.000000 -1.000000
vn 1.000000 0.000001 0.000000
vn 1.000000 0.000001 0.000000
vn 1.000000 0.000001 0.000000
vn 1.000000 0.000001 0.000000
vn 0.000000 1.000000 -0.000000
vn 0.000000 1.000000 -0.000000
vn 0.000000 1.000000 -0.000000
vn 0.000000 1.000000 -0.000000
vn 0.000000 1.000000 0.000000
vn 0.000000 1.000000 0.000000
vn 0.000000 1.000000 0.000000
vn 0.000000 1.000000 0.000000
vn 0.000000 -0.000000 -1.000000
vn 0.000000 -0.000000 -1.000000
vn 0.000000 -0.000000 -1.000000
vn 0.000000 -0.000000 -1.000000
vn -1.000000 -0.000001 -0.000000
vn -1.000000 -0.000001 -0.000000
vn -1.000000 -0.000001 -0.000000
vn -1.000000 -0.000001 -0.000000
vn -0.000000 -0.000000 1.000000
vn -0.000000 -0.000000 1.000000
vn -0.000000 -0.000000 1.000000
vn -0.000000 -0.000000 1.000000
vn 1.000000 -0.000000 0.000000
vn 1.000000 -0.000000 0.000000
vn 1.000000 -0.000000 0.000000
vn 1.000000 -0.000000 0.000000
vn -0.000000 -1.000000 -0.000000
vn -0.000000 -1.000000 -0.000000
vn -0.000000 -1.000000 -0.000000
vn -0.000000 -1.000000 -0.000000
vn -0.000000 -1.000000 -0.000000
vn -0.000000 -1.000000 -0.000000
vn -0.000000 -1.000000 0.000000
vn -0.000000 -1.000000 0.000000
vn -0.000000 -0.010260 -0.999947
vn -0.000000 -0.010260 -0.999947
vn -0.000000 -0.010260 -0.999947
vn -0.000000 -0.010260 -0.999947
vn -0.999960 -0.008897 -0.000000
vn -0.999960 -0.008897 -0.000000
vn -0.999960 -0.008897 -0.000000
vn -0.999960 -0.008897 -0.000000
vn 0.000000 -0.010260 0.999947
vn 0.000000 -0.010260 0.999947
vn 0.000000 -0.010260 0.999947
vn 0.000000 -0.010260 0.999947
vn 0.999960 -0.008898 0.000000
vn 0.999960 -0.008898 0.000000
vn 0.999960 -0.008898 0.000000
vn 0.999960 -0.008898 0.000000
vn 0.000001 1.000000 -0.000007
vn 0.000001 1.000000 -0.000007
vn -0.000008 1.000000 -0.000007
vn -0.000008 1.000000 -0.000007
vn -0.000008 1.000000 0.000003
vn -0.000008 1.000000 0.000003
vn 0.000001 1.000000 0.000003
vn 0.000001 1.000000 0.000003
vn -0.000000 0.077185 -0.997017
vn -0.000000 0.077185 -0.997017
vn -0.000000 0.077185 -0.997017
vn -0.000000 0.077185 -0.997017
vn -0.997754 0.066982 0.000000
vn -0.997754 0.066982 0.000000
vn -0.997754 0.066982 0.000000
vn -0.997754 0.066982 0.000000
vn -0.000000 0.077186 0.997017
vn -0.000000 0.077186 0.997017
vn -0.000000 0.077186 0.997017
vn -0.000000 0.077186 0.997017
vn 0.997754 0.066987 -0.000000
vn 0.997754 0.066987 -0.000000
vn 0.997754 0.066987 -0.000000
vn 0.997754 0.066987 -0.000000
vn -0.000007 1.000000 0.000002
vn -0.000007 1.000000 0.000002
vn 0.000006 1.000000 0.000002
vn 0.000006 1.000000 0.000002
vn 0.000006 1.000000 -0.000010
vn 0.000006 1.000000 -0.000010
vn -0.000008 1.000000 -0.000011
vn -0.000008 1.000000 -0.000011
vn -0.000000 -0.000002 -1.000000
vn -0.000000 -0.000002 -1.000000
vn -0.000000 -0.000002 -1.000000
vn -0.000000 -0.000002 -1.000000
vn -1.000000 -0.000001 -0.000000
vn -1.000000 -0.000001 -0.000000
vn -1.000000 -0.000001 -0.000000
vn -1.000000 -0.000001 -0.000000
vn 0.000000 0.000002 1.000000
vn 0.000000 0.000002 1.000000
vn 0.000000 0.000002 1.000000
vn 0.000000 0.000002 1.000000
vn 1.000000 0.000001 -0.000000
vn 1.000000 0.000001 -0.000000
vn 1.000000 0.000001 -0.000000
vn 1.000000 0.000001 -0.000000
vn 0.000007 -1.000000 -0.000001
vn 0.000007 -1.000000 -0.000001
vn -0.000005 -1.000000 -0.000001
vn -0.000005 -1.000000 -0.000001
vn -0.000005 -1.000000 0.000008
vn -0.000005 -1.000000 0.000008
vn 0.000007 -1.000000 0.000008
vn 0.000007 -1.000000 0.000008
vn 0.000003 -0.554904 -0.831914
vn 0.000003 -0.554904 -0.831914
vn 0.000003 -0.554904 -0.831914
vn -0.856366 -0.516370 0.000001
vn -0.856366 -0.516370 0.000001
vn -0.856366 -0.516370 0.000001
vn 0.000003 -0.554899 0.831917
vn 0.000003 -0.554899 0.831917
vn 0.000003 -0.554899 0.831917
vn 0.856371 -0.516361 0.000001
vn 0.856371 -0.516361 0.000001
vn 0.856371 -0.516361 0.000001
vn -0.997754 0.066982 -0.000000
vn -0.997754 0.066982 -0.000000
vn -0.997754 0.066982 -0.000000
vn -0.997754 0.066982 -0.000000
vn -0.997754 0.066982 -0.000000
vn -0.997754 0.066982 -0.000000
vn -0.997754 0.066982 -0.000000
vn -0.997754 0.066982 -0.000000
vn -0.066972 -0.997755 0.000000
vn -0.066972 -0.997755 0.000000
vn -0.066972 -0.997755 0.000000
vn -0.066972 -0.997755 0.000000
vn -0.005158 -0.076841 -0.997030
vn -0.005158 -0.076841 -0.997030
vn -0.005158 -0.076841 -0.997030
vn -0.005158 -0.076841 -0.997030
vn 0.066972 0.997755 0.000000
vn 0.066972 0.997755 0.000000
vn 0.066972 0.997755 0.000000
vn 0.066972 0.997755 0.000000
vn -0.005157 -0.076840 0.997030
vn -0.005157 -0.076840 0.997030
vn -0.005157 -0.076840 0.997030
vn -0.005157 -0.076840 0.997030
vn -0.000000 0.077186 -0.997017
vn -0.000000 0.077186 -0.997017
vn -0.000000 0.077186 -0.997017
vn -0.000000 0.077186 -0.997017
vn 0.000001 0.077185 -0.997017
vn 0.000001 0.077185 -0.997017
vn 0.000001 0.077185 -0.997017
vn 0.000001 0.077185 -0.997017
vn -0.000000 0.077186 -0.997017
vn -0.000000 0.077186 -0.997017
vn -0.000000 0.077186 -0.997017
vn -0.000000 0.077186 -0.997017
vn 0.000000 0.077185 -0.997017
vn 0.000000 0.077185 -0.997017
vn 0.000000 0.077185 -0.997017
vn 0.000000 0.077185 -0.997017
vn 0.000003 -0.997016 -0.077192
vn 0.000003 -0.997016 -0.077192
vn 0.000003 -0.997016 -0.077192
vn 0.000003 -0.997016 -0.077192
vn 0.997768 -0.066584 -0.005156
vn 0.997768 -0.066584 -0.005156
vn 0.997768 -0.066584 -0.005156
vn 0.997768 -0.066584 -0.005156
vn -0.000003 0.997016 0.077196
vn -0.000003 0.997016 0.077196
vn -0.000003 0.997016 0.077196
vn -0.000003 0.997016 0.077196
vn -0.997767 -0.066589 -0.005155
vn -0.997767 -0.066589 -0.005155
vn -0.997767 -0.066589 -0.005155
vn -0.997767 -0.066589 -0.005155
vn 0.997754 0.066987 -0.000000
vn 0.997754 0.066987 -0.000000
vn 0.997754 0.066987 -0.000000
vn 0.997754 0.066987 -0.000000
vn 0.997754 0.066987 -0.000001
vn 0.997754 0.066987 -0.000001
vn 0.997754 0.066987 -0.000001
vn 0.997754 0.066987 -0.000001
vn 0.997754 0.066987 -0.000000
vn 0.997754 0.066987 -0.000000
vn 0.997754 0.066987 -0.000000
vn 0.997754 0.066987 -0.000000
vn 0.997754 0.066987 -0.000001
vn 0.997754 0.066987 -0.000001
vn 0.997754 0.066987 -0.000001
vn 0.997754 0.066987 -0.000001
vn 0.066980 -0.997754 0.000000
vn 0.066980 -0.997754 0.000000
vn 0.066980 -0.997754 0.000000
vn 0.066980 -0.997754 0.000000
vn 0.005158 -0.076840 0.997030
vn 0.005158 -0.076840 0.997030
vn 0.005158 -0.076840 0.997030
vn 0.005158 -0.076840 0.997030
vn -0.066980 0.997754 -0.000001
vn -0.066980 0.997754 -0.000001
vn -0.066980 0.997754 -0.000001
vn -0.066980 0.997754 -0.000001
vn 0.005158 -0.076841 -0.997030
vn 0.005158 -0.076841 -0.997030
vn 0.005158 -0.076841 -0.997030
vn 0.005158 -0.076841 -0.997030
vn -0.000001 0.077187 0.997017
vn -0.000001 0.077187 0.997017
vn -0.000000 0.077187 0.997017
vn -0.000000 0.077187 0.997017
vn -0.000000 0.077186 0.997017
vn -0.000000 0.077186 0.997017
vn -0.000001 0.077186 0.997017
vn -0.000001 0.077186 0.997017
vn 0.000002 -0.997017 0.077185
vn 0.000002 -0.997017 0.077185
vn 0.000002 -0.997017 0.077185
vn 0.000002 -0.997017 0.077185
vn -0.997772 -0.066516 0.005150
vn -0.997772 -0.066516 0.005150
vn -0.997772 -0.066516 0.005150
vn -0.997772 -0.066516 0.005150
vn -0.000002 0.997016 -0.077194
vn -0.000002 0.997016 -0.077194
vn -0.000002 0.997016 -0.077194
vn -0.000002 0.997016 -0.077194
vn 0.997772 -0.066511 0.005149
vn 0.997772 -0.066511 0.005149
vn 0.997772 -0.066511 0.005149
vn 0.997772 -0.066511 0.005149
s off
g pCube1
usemtl blinn1SG
f 1/1/1 3/4/2 4/3/3 2/2/4
f 5/5/5 7/8/6 8/7/7 6/6/8
f 2/2/9 4/3/10 6/6/11 8/7/12
f 7/8/13 5/5/14 3/15/15 1/14/16
s 5
f 7/17/17 9/20/18 10/19/19 8/18/20
f 8/18/20 10/19/19 11/22/21 2/21/22
f 2/21/22 11/22/21 12/24/23 1/23/24
f 1/23/24 12/24/23 9/20/18 7/17/17
s off
f 9/20/25 13/28/26 14/27/27 10/19/28
f 10/19/29 14/32/30 15/31/31 11/22/32
f 11/22/33 15/36/34 16/35/35 12/24/36
f 12/24/37 16/40/38 13/39/39 9/20/40
s 10
f 3/41/41 17/44/42 18/43/43 4/42/44
f 4/42/44 18/43/43 19/46/45 6/45/46
f 6/45/46 19/46/45 20/48/47 5/47/48
f 5/47/48 20/48/47 17/44/42 3/41/41
s off
f 17/49/49 21/52/50 22/51/51 18/50/52
f 18/43/53 22/51/54 23/55/55 19/46/56
f 19/57/57 23/55/58 24/59/59 20/58/60
f 20/61/61 24/59/62 21/52/63 17/62/64
s 15
f 21/52/65 25/68/66 26/67/67 22/51/68
f 22/51/68 26/67/67 27/70/69 23/55/70
f 23/55/70 27/70/69 28/72/71 24/59/72
f 24/59/72 28/72/71 25/68/66 21/52/65
s off
f 25/73/73 29/76/74 30/75/75 26/74/76
f 26/74/77 30/75/78 31/79/79 27/78/80
f 27/78/81 31/79/82 32/83/83 28/82/84
f 28/85/85 32/88/86 29/76/87 25/73/88
s 20
f 29/89/89 33/92/90 34/91/91 30/90/92
f 30/90/92 34/91/91 35/94/93 31/93/94
f 31/93/94 35/94/93 36/96/95 32/95/96
f 32/95/96 36/96/95 33/92/90 29/89/89
s off
f 66/97/97 69/100/98 68/99/99 67/98/100
f 58/101/101 61/104/102 60/103/103 59/102/104
f 83/80/105 85/77/106 84/86/107 82/106/108
f 75/81/109 77/84/110 76/108/111 74/107/112
s 25
f 37/113/113 41/116/114 42/115/115 38/114/116
f 38/114/116 42/115/115 43/118/117 39/117/118
f 39/117/118 43/118/117 44/120/119 40/119/120
f 40/119/120 44/120/119 41/116/114 37/113/113
s off
f 41/121/121 45/124/122 46/123/123 42/122/124
f 42/125/125 46/123/126 47/63/127 43/126/128
f 43/129/129 47/63/130 48/54/131 44/130/132
f 44/127/133 48/54/134 45/124/135 41/128/136
s 30
f 45/124/137 49/64/138 50/131/139 46/123/140
f 46/123/140 50/131/139 51/60/141 47/63/142
f 47/63/142 51/60/141 52/53/143 48/54/144
f 48/54/144 52/53/143 49/64/138 45/124/137
s off
f 49/64/145 53/56/146 50/131/147
f 50/131/148 53/56/149 51/60/150
f 51/60/151 53/56/152 52/53/153
f 52/53/154 53/56/155 49/64/156
s 35
f 34/91/157 54/65/158 55/66/159 35/69/160
f 35/69/160 55/66/159 56/33/161 39/34/162
f 39/34/162 56/33/161 57/25/163 38/26/164
f 38/26/164 57/25/163 54/65/158 34/91/157
s off
f 54/65/165 58/101/166 59/102/167 55/66/168
f 55/66/169 59/102/170 60/103/171 56/33/172
f 56/33/173 60/103/174 61/104/175 57/25/176
f 57/25/177 61/104/178 58/101/179 54/65/180
f 33/92/181 62/38/182 63/112/183 34/91/184
f 34/91/185 63/112/186 64/87/187 38/26/188
f 38/26/189 64/87/190 65/71/191 37/111/192
f 37/111/193 65/71/194 62/38/195 33/92/196
f 62/38/197 66/97/198 67/98/199 63/112/200
f 63/112/201 67/98/202 68/99/203 64/87/204
f 64/87/205 68/99/206 69/100/207 65/71/208
f 65/71/209 69/100/210 66/97/211 62/38/212
f 36/29/213 71/110/214 70/105/215 33/30/216
f 33/30/217 70/105/218 72/13/219 37/37/220
f 37/37/221 72/13/222 73/16/223 40/109/224
f 40/109/225 73/16/226 71/110/227 36/29/228
f 71/110/229 75/81/230 74/107/231 70/105/232
f 70/105/233 74/107/234 76/108/235 72/13/236
f 72/13/237 76/108/238 77/84/239 73/16/240
f 73/16/241 77/84/242 75/81/243 71/110/244
s 56
f 35/69/245 79/12/246 78/9/247 36/29/248
f 36/29/248 78/9/247 80/11/249 40/109/250
f 40/109/250 80/11/249 81/10/251 39/34/252
f 39/34/252 81/10/251 79/12/246 35/69/245
s off
f 79/12/253 83/80/254 82/106/255 78/9/256
f 78/9/257 82/106/258 84/86/259 80/11/260
f 80/11/261 84/86/262 85/77/263 81/10/264
f 81/10/265 85/77/266 83/80/267 79/12/268
